<mxfile host="65bd71144e">
    <diagram id="UBVuo5mlm7CK9OX2zQcn" name="Page-1">
        <mxGraphModel dx="766" dy="618" grid="1" gridSize="10" guides="1" tooltips="1" connect="1" arrows="1" fold="1" page="1" pageScale="1" pageWidth="827" pageHeight="1169" math="0" shadow="0">
            <root>
                <mxCell id="0"/>
                <mxCell id="1" parent="0"/>
                <mxCell id="11" value="" style="rounded=0;whiteSpace=wrap;html=1;fillColor=#f5f5f5;gradientColor=#b3b3b3;strokeColor=#000000;" vertex="1" parent="1">
                    <mxGeometry x="30" y="60" width="380" height="400" as="geometry"/>
                </mxCell>
                <mxCell id="7" style="edgeStyle=none;html=1;exitX=1;exitY=0.5;exitDx=0;exitDy=0;entryX=0;entryY=0.5;entryDx=0;entryDy=0;strokeColor=#000000;fontSize=24;strokeWidth=3;endArrow=none;endFill=0;" parent="1" source="2" target="4" edge="1">
                    <mxGeometry relative="1" as="geometry"/>
                </mxCell>
                <mxCell id="2" value="a2" style="ellipse;whiteSpace=wrap;html=1;strokeColor=#000000;fontSize=24;strokeWidth=3;" parent="1" vertex="1">
                    <mxGeometry x="60" y="220" width="120" height="80" as="geometry"/>
                </mxCell>
                <mxCell id="8" style="edgeStyle=none;html=1;exitX=1;exitY=0.5;exitDx=0;exitDy=0;entryX=0;entryY=0.5;entryDx=0;entryDy=0;strokeColor=#000000;fontSize=24;strokeWidth=3;endArrow=none;endFill=0;" parent="1" source="3" target="5" edge="1">
                    <mxGeometry relative="1" as="geometry"/>
                </mxCell>
                <mxCell id="3" value="a3" style="ellipse;whiteSpace=wrap;html=1;strokeColor=#000000;fontSize=24;strokeWidth=3;" parent="1" vertex="1">
                    <mxGeometry x="60" y="330" width="120" height="80" as="geometry"/>
                </mxCell>
                <mxCell id="4" value="b1" style="ellipse;whiteSpace=wrap;html=1;strokeColor=#000000;fontSize=24;strokeWidth=3;" parent="1" vertex="1">
                    <mxGeometry x="250" y="110" width="120" height="80" as="geometry"/>
                </mxCell>
                <mxCell id="5" value="b2" style="ellipse;whiteSpace=wrap;html=1;strokeColor=#000000;fontSize=24;strokeWidth=3;" parent="1" vertex="1">
                    <mxGeometry x="250" y="220" width="120" height="80" as="geometry"/>
                </mxCell>
                <mxCell id="6" value="b3" style="ellipse;whiteSpace=wrap;html=1;strokeColor=#000000;fontSize=24;strokeWidth=3;" parent="1" vertex="1">
                    <mxGeometry x="250" y="330" width="120" height="80" as="geometry"/>
                </mxCell>
                <object label="" id="10">
                    <mxCell style="edgeStyle=none;html=1;exitX=1;exitY=0.5;exitDx=0;exitDy=0;entryX=0;entryY=0.5;entryDx=0;entryDy=0;dashed=1;strokeColor=#FF0000;fontSize=24;strokeWidth=3;endArrow=none;endFill=0;" parent="1" source="9" target="4" edge="1">
                        <mxGeometry relative="1" as="geometry"/>
                    </mxCell>
                </object>
                <mxCell id="9" value="a1" style="ellipse;whiteSpace=wrap;html=1;strokeColor=#000000;fontSize=24;strokeWidth=3;" parent="1" vertex="1">
                    <mxGeometry x="60" y="110" width="120" height="80" as="geometry"/>
                </mxCell>
            </root>
        </mxGraphModel>
    </diagram>
</mxfile>